23000 0 2 2           
30 Autodesk Translation Framework 20 ASM 230.4.0.65535 NT 24 Tue Jul  9 13:17:58 2024 
1 9.999999999999999547e-07 1.000000000000000036e-10 
asmheader $-1 -1 @13 230.4.0.65535 #
body $2 -1 $-1 $3 $-1 $4 #
rgb_color-st-attrib $-1 -1 $5 $-1 $1 0.627450980392156854 0.627450980392156854 0.627450980392156854 1 #
lump $-1 -1 $-1 $-1 $6 $1 #
transform $-1 -1 1 0 0 0 1 0 0 0 1 0 0 0 1 no_rotate no_reflect no_shear #
ATTRIB_CUSTOM-attrib $-1 -1 $-1 $2 $1 @20 Timestamp_attrib_def 1 1720530494818826 #
shell $-1 -1 $-1 $-1 $-1 $7 $-1 $3 #
face $8 -1 $-1 $9 $10 $6 $-1 $11 forward single #
DXID-attrib $-1 -1 $-1 $-1 $7 @10 ASM ENTITY @1 0 #
face $12 -1 $-1 $13 $14 $6 $-1 $15 forward single #
loop $-1 -1 $-1 $16 $17 $7 #
cone-surface $-1 -1 $-1 6.499999999999994671 9.75 0 0 -1 0 -0.375000000000000111 0 0 1 I I 0 1 0.375000000000000111 forward I I I I #
DXID-attrib $-1 -1 $-1 $-1 $9 @10 ASM ENTITY @1 1 #
face $18 -1 $-1 $19 $20 $6 $-1 $21 forward single #
loop $-1 -1 $-1 $22 $23 $9 #
torus-surface $-1 -1 $-1 3.749999999999995115 9.750000000000003553 0 0 0 -1 2.75 0.375000000000000111 -1 0 0 forward_v I I I I #
loop $-1 -1 $-1 $-1 $24 $7 #
coedge $-1 -1 $-1 $17 $17 $25 $26 reversed $10 0 $-1 #
DXID-attrib $-1 -1 $-1 $-1 $13 @10 ASM ENTITY @1 2 #
face $27 -1 $-1 $28 $29 $6 $-1 $30 forward single #
loop $-1 -1 $-1 $31 $32 $13 #
cone-surface $-1 -1 $-1 0.999999999999999778 -9.749999999999994671 0 -2.490884991146184078e-16 1 0 0.375000000000000111 9.340818716798193374e-17 0 1 I I 0 1 0.375000000000000111 forward I I I I #
loop $-1 -1 $-1 $-1 $33 $9 #
coedge $-1 -1 $-1 $23 $23 $24 $34 reversed $14 0 $-1 #
coedge $-1 -1 $-1 $24 $24 $23 $34 forward $16 0 $-1 #
coedge $-1 -1 $-1 $25 $25 $17 $26 forward $35 0 $-1 #
edge $-1 -1 $-1 $36 -3.141592653589793116 $36 3.141592653589793116 $17 $37 forward @7 unknown #
DXID-attrib $-1 -1 $-1 $-1 $19 @10 ASM ENTITY @1 3 #
face $38 -1 $-1 $39 $40 $6 $-1 $41 forward single #
loop $-1 -1 $-1 $42 $43 $19 #
torus-surface $-1 -1 $-1 4.25 -9.749999999999998224 0 0 0 -1 3.25 0.375000000000000111 -1 0 0 forward_v I I I I #
loop $-1 -1 $-1 $-1 $44 $13 #
coedge $-1 -1 $-1 $32 $32 $33 $45 reversed $20 0 $-1 #
coedge $-1 -1 $-1 $33 $33 $32 $45 forward $22 0 $-1 #
edge $-1 -1 $-1 $46 -3.141592653589793116 $46 3.141592653589793116 $23 $47 forward @7 tangent #
loop $-1 -1 $-1 $-1 $25 $48 #
vertex $-1 -1 $-1 $26 2 $49 #
ellipse-curve $-1 -1 $-1 6.499999999999994671 0.2499999999999991118 0 3.673940397442060854e-16 -1 0 -0.375000000000000111 -1.377727649040773375e-16 0 1 I I #
DXID-attrib $-1 -1 $-1 $-1 $28 @10 ASM ENTITY @1 4 #
face $50 -1 $-1 $51 $52 $6 $-1 $53 forward single #
loop $-1 -1 $-1 $54 $55 $28 #
cone-surface $-1 -1 $-1 7.5 16.5 0 0 -1 0 -0.375000000000000111 0 0 1 I I 0 1 0.375000000000000111 forward I I I I #
loop $-1 -1 $-1 $-1 $56 $19 #
coedge $-1 -1 $-1 $43 $43 $44 $57 reversed $29 0 $-1 #
coedge $-1 -1 $-1 $44 $44 $43 $57 forward $31 0 $-1 #
edge $-1 -1 $-1 $58 -3.141592653589793116 $58 3.141592653589793116 $32 $59 forward @7 tangent #
vertex $-1 -1 $-1 $34 2 $60 #
ellipse-curve $-1 -1 $-1 6.499999999999994671 9.75 0 3.673940397442060854e-16 -1 0 -0.375000000000000111 -1.377727649040773375e-16 0 1 I I #
face $61 -1 $-1 $62 $35 $6 $-1 $63 forward single #
point $-1 -1 $-1 6.874999999999994671 0.250000000000000222 4.592425496802576068e-17 #
DXID-attrib $-1 -1 $-1 $-1 $39 @10 ASM ENTITY @1 5 #
face $64 -1 $-1 $48 $65 $6 $-1 $66 forward single #
loop $-1 -1 $-1 $67 $68 $39 #
torus-surface $-1 -1 $-1 3.75 16.5 0 0 0 -1 3.75 0.375000000000000111 -1 0 0 forward_v I I I I #
loop $-1 -1 $-1 $-1 $69 $28 #
coedge $-1 -1 $-1 $55 $55 $56 $70 reversed $40 0 $-1 #
coedge $-1 -1 $-1 $56 $56 $55 $70 forward $42 0 $-1 #
edge $-1 -1 $-1 $71 -3.141592653589793116 $71 3.141592653589793116 $43 $72 forward @7 tangent #
vertex $-1 -1 $-1 $45 2 $73 #
ellipse-curve $-1 -1 $-1 0.999999999999994893 9.750000000000007105 0 -2.449293598294706907e-16 1 0 0.375000000000000111 9.184850993605153368e-17 0 1 I I #
point $-1 -1 $-1 6.874999999999994671 9.75 4.592425496802576068e-17 #
DXID-attrib $-1 -1 $-1 $-1 $48 @10 ASM ENTITY @1 7 #
face $74 -1 $-1 $-1 $75 $6 $-1 $76 reversed single #
plane-surface $-1 -1 $-1 6.499999999999996447 0.2500000000000035527 0 3.673940397442060854e-16 -1 0 -10 -3.673940397442060756e-15 0 forward_v I I I I #
DXID-attrib $-1 -1 $-1 $-1 $51 @10 ASM ENTITY @1 6 #
loop $-1 -1 $-1 $77 $78 $51 #
cone-surface $-1 -1 $-1 0 0 0 0 1 0 0.375000000000000111 0 0 1 I I 0 1 0.375000000000000111 forward I I I I #
loop $-1 -1 $-1 $-1 $79 $39 #
coedge $-1 -1 $-1 $68 $68 $69 $80 reversed $52 0 $-1 #
coedge $-1 -1 $-1 $69 $69 $68 $80 forward $54 0 $-1 #
edge $-1 -1 $-1 $81 -3.141592653589793116 $81 3.141592653589793116 $55 $82 forward @7 tangent #
vertex $-1 -1 $-1 $57 2 $83 #
ellipse-curve $-1 -1 $-1 0.999999999999999778 -9.749999999999994671 0 -2.449293598294706907e-16 1 0 0.375000000000000111 9.184850993605153368e-17 0 1 I I #
point $-1 -1 $-1 0.624999999999995115 9.750000000000005329 4.592425496802576068e-17 #
DXID-attrib $-1 -1 $-1 $-1 $62 @10 ASM ENTITY @1 8 #
loop $-1 -1 $-1 $-1 $84 $62 #
plane-surface $-1 -1 $-1 0 0 0 0 1 0 10 0 0 forward_v I I I I #
loop $-1 -1 $-1 $-1 $85 $51 #
coedge $-1 -1 $-1 $78 $78 $79 $86 reversed $65 0 $-1 #
coedge $-1 -1 $-1 $79 $79 $78 $86 forward $67 0 $-1 #
edge $-1 -1 $-1 $87 -3.141592653589793116 $87 3.141592653589793116 $68 $88 forward @7 tangent #
vertex $-1 -1 $-1 $70 2 $89 #
ellipse-curve $-1 -1 $-1 7.5 -9.749999999999998224 0 1.224646799147353207e-16 -1 0 -0.375000000000000111 -4.592425496802576068e-17 0 1 I I #
point $-1 -1 $-1 0.625 -9.749999999999996447 4.592425496802576068e-17 #
coedge $90 -1 $-1 $84 $84 $85 $91 reversed $75 0 $-1 #
coedge $92 -1 $-1 $85 $85 $84 $91 forward $77 0 $-1 #
edge $-1 -1 $-1 $93 -3.141592653589793116 $93 3.141592653589793116 $78 $94 forward @7 tangent #
vertex $-1 -1 $-1 $80 2 $95 #
ellipse-curve $-1 -1 $-1 7.5 16.5 0 1.224646799147353207e-16 -1 0 -0.375000000000000111 -4.592425496802576068e-17 0 1 I I #
point $-1 -1 $-1 7.875 -9.749999999999998224 4.592425496802576068e-17 #
ATTRIB_CUSTOM-attrib $-1 -1 $-1 $-1 $84 @17 sketch_attrib_def 1 1 3 @13 124 0 0 0 1 1 #
edge $-1 -1 $-1 $96 -3.141592653589793116 $96 3.141592653589793116 $85 $97 forward @7 unknown #
ATTRIB_CUSTOM-attrib $-1 -1 $-1 $-1 $85 @17 sketch_attrib_def 1 1 3 @13 124 0 0 0 1 1 #
vertex $-1 -1 $-1 $86 2 $98 #
ellipse-curve $-1 -1 $-1 0 16.5 0 0 1 0 0.375000000000000111 0 0 1 I I #
point $-1 -1 $-1 7.875 16.5 4.592425496802576068e-17 #
vertex $-1 -1 $-1 $91 0 $99 #
ellipse-curve $-1 -1 $-1 0 0 0 0 1 0 0.375000000000000111 0 0 1 I I #
point $-1 -1 $-1 -0.375000000000000111 16.5 4.592425496802576068e-17 #
point $-1 -1 $-1 -0.375000000000000111 0 4.592425496802576068e-17 #
End-of-ASM-data 